%TF.GenerationSoftware,KiCad,Pcbnew,(5.1.10)-1*%
%TF.CreationDate,2022-06-23T22:49:29+01:00*%
%TF.ProjectId,tutorial1,7475746f-7269-4616-9c31-2e6b69636164,rev?*%
%TF.SameCoordinates,Original*%
%TF.FileFunction,Soldermask,Top*%
%TF.FilePolarity,Negative*%
%FSLAX46Y46*%
G04 Gerber Fmt 4.6, Leading zero omitted, Abs format (unit mm)*
G04 Created by KiCad (PCBNEW (5.1.10)-1) date 2022-06-23 22:49:29*
%MOMM*%
%LPD*%
G01*
G04 APERTURE LIST*
%ADD10O,2.100000X2.100000*%
%ADD11C,2.100000*%
%ADD12C,10.660000*%
%ADD13C,2.300000*%
%ADD14C,0.100000*%
G04 APERTURE END LIST*
D10*
%TO.C,U1*%
X725170000Y175260000D03*
X732790000Y167640000D03*
X727710000Y175260000D03*
X730250000Y167640000D03*
X730250000Y175260000D03*
X727710000Y167640000D03*
X732790000Y175260000D03*
G36*
G01*
X725970000Y166590000D02*
X724370000Y166590000D01*
G75*
G02*
X724120000Y166840000I0J250000D01*
G01*
X724120000Y168440000D01*
G75*
G02*
X724370000Y168690000I250000J0D01*
G01*
X725970000Y168690000D01*
G75*
G02*
X726220000Y168440000I0J-250000D01*
G01*
X726220000Y166840000D01*
G75*
G02*
X725970000Y166590000I-250000J0D01*
G01*
G37*
%TD*%
%TO.C,R2*%
X713740000Y161290000D03*
D11*
X711200000Y161290000D03*
%TD*%
D10*
%TO.C,R1*%
X744220000Y168910000D03*
D11*
X744220000Y171450000D03*
%TD*%
D12*
%TO.C,J1*%
X728730000Y149860000D03*
X743710000Y149860000D03*
X713740000Y149860000D03*
%TD*%
D13*
%TO.C,D1*%
X711200000Y172720000D03*
G36*
G01*
X714890000Y173620000D02*
X714890000Y171820000D01*
G75*
G02*
X714640000Y171570000I-250000J0D01*
G01*
X712840000Y171570000D01*
G75*
G02*
X712590000Y171820000I0J250000D01*
G01*
X712590000Y173620000D01*
G75*
G02*
X712840000Y173870000I250000J0D01*
G01*
X714640000Y173870000D01*
G75*
G02*
X714890000Y173620000I0J-250000D01*
G01*
G37*
%TD*%
D14*
G36*
X712591165Y172865998D02*
G01*
X712592000Y172864372D01*
X712592000Y172575628D01*
X712591000Y172573896D01*
X712589000Y172573896D01*
X712588010Y172575432D01*
X712585628Y172599619D01*
X712578628Y172622694D01*
X712567263Y172643958D01*
X712551968Y172662595D01*
X712533331Y172677890D01*
X712512067Y172689255D01*
X712488992Y172696255D01*
X712465001Y172698618D01*
X712441010Y172696255D01*
X712417935Y172689255D01*
X712396671Y172677890D01*
X712378034Y172662595D01*
X712362739Y172643958D01*
X712351374Y172622694D01*
X712346098Y172605300D01*
X712344638Y172603933D01*
X712342724Y172604514D01*
X712342222Y172606271D01*
X712342462Y172607479D01*
X712342462Y172832521D01*
X712342222Y172833729D01*
X712342866Y172835623D01*
X712344827Y172836013D01*
X712346098Y172834700D01*
X712351374Y172817306D01*
X712362739Y172796042D01*
X712378034Y172777405D01*
X712396671Y172762110D01*
X712417935Y172750745D01*
X712441010Y172743745D01*
X712465001Y172741382D01*
X712488992Y172743745D01*
X712512067Y172750745D01*
X712533331Y172762110D01*
X712551968Y172777405D01*
X712567263Y172796042D01*
X712578628Y172817306D01*
X712585628Y172840381D01*
X712588010Y172864568D01*
X712589175Y172866194D01*
X712591165Y172865998D01*
G37*
M02*
